<svg id="Icon_feather-sun" data-name="Icon feather-sun" xmlns="http://www.w3.org/2000/svg" width="32.389" height="32.389" viewBox="0 0 32.389 32.389">
  <path id="Path_10" data-name="Path 10" d="M23.858,17.179A6.679,6.679,0,1,1,17.179,10.5,6.679,6.679,0,0,1,23.858,17.179Z" transform="translate(-0.985 -0.985)" fill="none" stroke="#fff" stroke-linecap="round" stroke-linejoin="round" stroke-width="3"/>
  <path id="Path_11" data-name="Path 11" d="M18,1.5V4.172" transform="translate(-1.806)" fill="none" stroke="#fff" stroke-linecap="round" stroke-linejoin="round" stroke-width="3"/>
  <path id="Path_12" data-name="Path 12" d="M18,31.5v2.672" transform="translate(-1.806 -3.283)" fill="none" stroke="#fff" stroke-linecap="round" stroke-linejoin="round" stroke-width="3"/>
  <path id="Path_13" data-name="Path 13" d="M6.33,6.33l1.9,1.9" transform="translate(-0.529 -0.529)" fill="none" stroke="#fff" stroke-linecap="round" stroke-linejoin="round" stroke-width="3"/>
  <path id="Path_14" data-name="Path 14" d="M27.54,27.54l1.9,1.9" transform="translate(-2.85 -2.85)" fill="none" stroke="#fff" stroke-linecap="round" stroke-linejoin="round" stroke-width="3"/>
  <path id="Path_15" data-name="Path 15" d="M1.5,18H4.172" transform="translate(0 -1.806)" fill="none" stroke="#fff" stroke-linecap="round" stroke-linejoin="round" stroke-width="3"/>
  <path id="Path_16" data-name="Path 16" d="M31.5,18h2.672" transform="translate(-3.283 -1.806)" fill="none" stroke="#fff" stroke-linecap="round" stroke-linejoin="round" stroke-width="3"/>
  <path id="Path_17" data-name="Path 17" d="M6.33,29.437l1.9-1.9" transform="translate(-0.529 -2.85)" fill="none" stroke="#fff" stroke-linecap="round" stroke-linejoin="round" stroke-width="3"/>
  <path id="Path_18" data-name="Path 18" d="M27.54,8.227l1.9-1.9" transform="translate(-2.85 -0.529)" fill="none" stroke="#fff" stroke-linecap="round" stroke-linejoin="round" stroke-width="3"/>
</svg>
