<svg xmlns="http://www.w3.org/2000/svg" width="22.897" height="20.031" viewBox="0 0 22.897 20.031">
  <path id="Icon_awesome-wind" data-name="Icon awesome-wind" d="M7.007,12.268H.715A.718.718,0,0,0,0,12.983v1.431a.718.718,0,0,0,.715.715H7.074a1.494,1.494,0,0,1,1.494,1.19,1.433,1.433,0,0,1-2.773.693.706.706,0,0,0-.68-.452H3.649a.712.712,0,0,0-.711.823A4.293,4.293,0,0,0,11.408,16,4.388,4.388,0,0,0,7.007,12.268ZM.715,10.837H15.741a4.294,4.294,0,1,0-4.212-5.111.7.7,0,0,0,.707.818H13.7a.7.7,0,0,0,.68-.452,1.433,1.433,0,0,1,2.773.693,1.49,1.49,0,0,1-1.494,1.19H.715A.718.718,0,0,0,0,8.69v1.431A.718.718,0,0,0,.715,10.837Zm17.172,1.431H10.9a5.653,5.653,0,0,1,1.78,2.862h5.21a2.146,2.146,0,1,1-1.86,3.2.74.74,0,0,0-.648-.34H13.867a.717.717,0,0,0-.684.944,5,5,0,1,0,4.7-6.667Z" transform="translate(0 -2.253)" fill="#fff"/>
</svg>
