<svg xmlns="http://www.w3.org/2000/svg" width="17.755" height="22.93" viewBox="0 0 17.755 22.93">
  <path id="Icon_weather-raindrop" data-name="Icon weather-raindrop" d="M11.772,22.464a8.411,8.411,0,0,0,1.192,4.375A9.06,9.06,0,0,0,16.2,30.073a8.548,8.548,0,0,0,4.409,1.209,8.714,8.714,0,0,0,4.443-1.209,9.022,9.022,0,0,0,3.268-3.234,8.472,8.472,0,0,0,1.209-4.375,9.618,9.618,0,0,0-.885-3.643A21.123,21.123,0,0,0,26.5,14.906c-.749-.97-1.634-2.043-2.656-3.2s-2.809-2.945-3.217-3.354l-2.179,2.2A26.431,26.431,0,0,0,15.4,14.089a26.1,26.1,0,0,0-2.536,4.341A9.453,9.453,0,0,0,11.772,22.464Z" transform="translate(-11.772 -8.352)" fill="#fff"/>
</svg>
